# xmcd
#
# Track frame offsets:
# 150
# 47624
# 82529
# 115403
# 159078
# 185102
# 199490
# 240030
# 262434
# 277031
#
# Disc length: 4197 seconds
#
# Revision: 0
# Processed by: cddbd v1.5.2PL0 Copyright (c) Steve Scherf et al.
# Submitted via: Audion 3.0.2 (http://www.panic.com/audion/)
#
DISCID=8510630a
DTITLE=JLB w/ Scott Cecil - Jerry's Little Band  05-05-07
DYEAR=1900
DGENRE=
TTITLE0=Hey Pockey Way
TTITLE1=Dear Prudence
TTITLE2=Get Out of My Life Woman
TTITLE3=Here Comes Sunshine
TTITLE4=They Love Each Other
TTITLE5=China Cat Sunflower
TTITLE6=I Know You Rider
TTITLE7=Shape I'm In
TTITLE8=Dark Hollow
TTITLE9=Althea
EXTD=
EXTT0=
EXTT1=
EXTT2=
EXTT3=
EXTT4=
EXTT5=
EXTT6=
EXTT7=
EXTT8=
EXTT9=
PLAYORDER=
